# xmcd
#
# Track frame offsets:
#	150
#	17056
#	36418
#	52006
#	71368
#	92720
#	109520
#	132052
#	151638
#	172897
#	189771
#	204924
#	225637
#
# Disc length: 3596 seconds
#
# Revision: 0
# Processed by: cddbd v1.5.2PL0 Copyright (c) Steve Scherf et al.
# Submitted via: EasyCDDAExtractor 11.9.9.666
#
DISCID=960e0a0d
DTITLE=Akkaduo - Kahden vaiheilla
DYEAR=2000
DGENRE=Pop
TTITLE0=Ta Dam
TTITLE1=Bahama
TTITLE2=Tässä huoneessa
TTITLE3=Lapin kulta
TTITLE4=Milloinkaan
TTITLE5=Leena
TTITLE6=Joku rakastaa sinua
TTITLE7=Bengalin lahdella
TTITLE8=Ikuinen ikävä
TTITLE9=Mitä ikinä
TTITLE10=Ihaa
TTITLE11=Teinkö väärin
TTITLE12=Extra
EXTD=
EXTT0=
EXTT1=
EXTT2=
EXTT3=
EXTT4=
EXTT5=
EXTT6=
EXTT7=
EXTT8=
EXTT9=
EXTT10=
EXTT11=
EXTT12=
PLAYORDER=
